<?xml version="1.0" standalone="no"?>
<!DOCTYPE svg PUBLIC "-//W3C//DTD SVG 20010904//EN"
 "http://www.w3.org/TR/2001/REC-SVG-20010904/DTD/svg10.dtd">
<svg version="1.0" xmlns="http://www.w3.org/2000/svg"
 width="260.000000pt" height="260.000000pt" viewBox="0 0 260.000000 260.000000"
 preserveAspectRatio="xMidYMid meet">
<metadata>
Created by potrace 1.11, written by Peter Selinger 2001-2013
</metadata>
<g transform="translate(0.000000,260.000000) scale(0.100000,-0.100000)"
fill="#000000" stroke="none">
<path d="M1929 2366 c-2 -2 -33 -7 -69 -11 -36 -4 -67 -8 -70 -10 -3 -2 -30
-6 -60 -9 -30 -3 -64 -8 -75 -10 -11 -2 -42 -7 -70 -10 -76 -11 -108 -16 -135
-21 -18 -4 -40 -28 -75 -83 -27 -42 -99 -153 -160 -247 -61 -93 -175 -269
-254 -390 -78 -121 -162 -251 -187 -288 l-45 -69 88 7 c48 4 111 9 138 10 28
2 79 7 115 10 176 14 200 16 200 10 0 -3 -118 -196 -262 -430 -145 -234 -270
-436 -278 -450 -155 -254 -153 -251 -77 -170 37 39 71 69 77 67 5 -1 9 2 8 7
-4 13 228 251 237 243 5 -4 5 -2 2 4 -4 6 10 27 31 46 20 19 56 56 79 82 26
29 47 45 54 40 7 -4 9 -3 6 3 -8 13 129 159 144 155 6 -1 8 1 5 6 -3 5 18 31
47 59 29 29 69 70 89 93 23 24 43 38 50 34 7 -4 8 -3 4 5 -9 14 133 163 147
154 6 -3 7 -2 4 4 -7 11 68 93 84 93 5 0 8 4 6 8 -1 4 30 40 68 79 39 38 96
97 127 130 31 34 60 58 63 55 3 -3 5 0 5 7 0 10 -60 12 -265 9 -146 -2 -265
-1 -265 2 0 3 11 18 25 33 14 15 23 27 20 27 -3 0 23 42 57 93 35 50 65 97 68
102 21 42 76 113 83 108 6 -3 7 -1 3 5 -8 13 79 144 89 134 4 -4 6 -2 5 3 -5
21 0 36 10 30 6 -4 10 -3 9 2 -3 17 2 32 14 45 7 7 35 48 61 90 27 43 52 76
55 73 4 -2 8 5 8 16 2 17 -25 27 -38 15z"/>
</g>
</svg>
